<svg width="209" height="208" xmlns="http://www.w3.org/2000/svg" xmlns:xlink="http://www.w3.org/1999/xlink" overflow="hidden"><defs><clipPath id="clip0"><rect x="368" y="58" width="209" height="208"/></clipPath><clipPath id="clip1"><rect x="369" y="59" width="208" height="207"/></clipPath><clipPath id="clip2"><rect x="369" y="59" width="208" height="207"/></clipPath></defs><g clip-path="url(#clip0)" transform="translate(-368 -58)"><g clip-path="url(#clip1)"><g clip-path="url(#clip2)"><path d="M97.5979 163.735C93.6566 159.794 87.2664 159.794 83.3251 163.735 79.3838 167.676 79.3838 174.067 83.3251 178.008L86.3405 180.923 80.4102 180.923C63.7568 180.923 50.2564 167.423 50.2564 150.769L50.2564 130.667C50.2564 125.115 45.7562 120.615 40.2051 120.615 34.654 120.615 30.1538 125.115 30.1538 130.667L30.1538 150.769C30.1538 178.525 52.6544 201.026 80.4102 201.026L86.3405 201.026 83.3251 203.94C79.3838 207.849 79.3576 214.214 83.2668 218.155 83.2862 218.174 83.3056 218.194 83.3251 218.213 87.2342 222.154 93.5983 222.18 97.5396 218.271 97.5591 218.252 97.5786 218.232 97.5979 218.213L117.7 198.111C121.642 194.202 121.668 187.837 117.759 183.896 117.74 183.877 117.72 183.857 117.7 183.838ZM201.026 120.615 190.974 120.615 190.974 50.2564C190.974 44.7053 186.474 40.2051 180.923 40.2051L110.564 40.2051 110.564 30.1538C110.564 24.6027 106.064 20.1026 100.513 20.1026 94.9615 20.1026 90.4615 24.6027 90.4615 30.1538L90.4615 40.2051 80.4102 40.2051C74.8591 40.2051 70.3589 44.7053 70.3589 50.2564 70.3589 55.8075 74.8591 60.3077 80.4102 60.3077L90.4615 60.3077 90.4615 130.667C90.4615 136.218 94.9615 140.718 100.513 140.718L170.872 140.718 170.872 150.769C170.872 156.32 175.372 160.82 180.923 160.82 186.474 160.82 190.974 156.32 190.974 150.769L190.974 140.718 201.026 140.718C206.577 140.718 211.077 136.218 211.077 130.667 211.077 125.115 206.577 120.615 201.026 120.615ZM170.872 120.615 110.564 120.615 110.564 60.3077 170.872 60.3077Z" stroke="#4353AF" stroke-width="0.77691" stroke-linecap="butt" stroke-linejoin="miter" stroke-miterlimit="4" stroke-opacity="1" fill="#FFFFFF" fill-rule="nonzero" fill-opacity="1" transform="matrix(1.06266 0 0 1 344.321 42.9919)"/></g></g></g></svg>