<svg width="257" height="258" xmlns="http://www.w3.org/2000/svg" xmlns:xlink="http://www.w3.org/1999/xlink" overflow="hidden"><defs><clipPath id="clip0"><rect x="344" y="40" width="257" height="258"/></clipPath><clipPath id="clip1"><rect x="344" y="41" width="257" height="257"/></clipPath><clipPath id="clip2"><rect x="344" y="41" width="257" height="257"/></clipPath><clipPath id="clip3"><rect x="344" y="41" width="257" height="257"/></clipPath></defs><g clip-path="url(#clip0)" transform="translate(-344 -40)"><g clip-path="url(#clip1)"><g clip-path="url(#clip2)"><g clip-path="url(#clip3)"><path d="M447.978 215.439C443.779 211.24 436.971 211.24 432.772 215.439 428.573 219.637 428.573 226.446 432.772 230.645L435.985 233.75 429.667 233.75C411.925 233.75 397.542 219.368 397.542 201.625L397.542 180.208C397.542 174.294 392.747 169.5 386.833 169.5 380.919 169.5 376.125 174.294 376.125 180.208L376.125 201.625C376.125 231.195 400.096 255.167 429.667 255.167L435.985 255.167 432.772 258.272C428.573 262.437 428.545 269.217 432.71 273.416 432.731 273.436 432.751 273.458 432.772 273.478 436.937 277.677 443.717 277.704 447.916 273.54 447.937 273.52 447.957 273.498 447.978 273.478L469.395 252.061C473.593 247.897 473.621 241.116 469.457 236.918 469.436 236.897 469.415 236.876 469.395 236.855ZM558.167 169.5 547.458 169.5 547.458 94.5417C547.458 88.6277 542.664 83.8333 536.75 83.8333L461.792 83.8333 461.792 73.125C461.792 67.211 456.998 62.4167 451.083 62.4167 445.169 62.4167 440.375 67.211 440.375 73.125L440.375 83.8333 429.667 83.8333C423.753 83.8333 418.958 88.6277 418.958 94.5417 418.958 100.456 423.753 105.25 429.667 105.25L440.375 105.25 440.375 180.208C440.375 186.123 445.169 190.917 451.083 190.917L526.042 190.917 526.042 201.625C526.042 207.539 530.836 212.333 536.75 212.333 542.664 212.333 547.458 207.539 547.458 201.625L547.458 190.917 558.167 190.917C564.081 190.917 568.875 186.123 568.875 180.208 568.875 174.294 564.081 169.5 558.167 169.5ZM526.042 169.5 461.792 169.5 461.792 105.25 526.042 105.25Z" stroke="#000000" stroke-width="10.7083" stroke-linecap="butt" stroke-linejoin="miter" stroke-miterlimit="4" stroke-opacity="1" fill="#FFFFFF" fill-rule="nonzero" fill-opacity="1"/></g></g></g></g></svg>